<svg width="257" height="42" viewBox="0 0 257 42" fill="none" xmlns="http://www.w3.org/2000/svg">
<g filter="url(#filter0_dd_35_1051)">
<rect x="7.8761" y="4.03369" width="39.9568" height="25.7414" rx="4.6104" fill="white"/>
<rect x="7.78005" y="3.93764" width="40.1489" height="25.9335" rx="4.70645" stroke="#D6DCE5" stroke-width="0.1921"/>
<path d="M27.6102 12.7092L25.7464 21.4212H23.4928L25.3568 12.7092H27.6102ZM37.092 18.3345L38.2785 15.0629L38.9612 18.3345H37.092ZM39.6065 21.4212H41.691L39.872 12.7092H37.9479C37.5155 12.7092 37.1507 12.9607 36.9883 13.3483L33.6072 21.4212H35.9739L36.4437 20.1202H39.3351L39.6065 21.4212ZM33.7247 18.5766C33.7343 16.2772 30.5448 16.1507 30.5669 15.1236C30.5735 14.8106 30.8716 14.4786 31.5226 14.3934C31.8461 14.3512 32.7353 14.3189 33.7451 14.7836L34.1405 12.9361C33.5981 12.7392 32.9002 12.5498 32.0322 12.5498C29.8048 12.5498 28.2369 13.7341 28.2237 15.4299C28.2096 16.684 29.3429 17.3838 30.1969 17.8007C31.0748 18.2278 31.3699 18.5014 31.366 18.8833C31.3602 19.4681 30.6656 19.7256 30.0176 19.7358C28.8843 19.7538 28.2267 19.4301 27.7025 19.1857L27.2942 21.0947C27.8205 21.3365 28.7925 21.5466 29.8009 21.5574C32.1681 21.5574 33.717 20.3877 33.7247 18.5766ZM24.3898 12.7092L20.7385 21.4212H18.3558L16.5591 14.4684C16.4499 14.0402 16.355 13.8836 16.0233 13.7029C15.4821 13.4093 14.5873 13.1333 13.8 12.9623L13.8538 12.7092H17.6885C18.1771 12.7092 18.6169 13.0346 18.7278 13.5973L19.6769 18.639L22.022 12.7092H24.3898Z" fill="#1434CB"/>
</g>
<g filter="url(#filter1_dd_35_1051)">
<rect x="58.119" y="4.03369" width="39.9568" height="25.7414" rx="4.6104" fill="white"/>
<rect x="58.023" y="3.93764" width="40.1489" height="25.9335" rx="4.70645" stroke="#D6DCE5" stroke-width="0.1921"/>
<path d="M80.9676 11.6182H75.0846V22.1902H80.9676V11.6182Z" fill="#FF5F00"/>
<path d="M75.4582 16.9042C75.4572 15.886 75.6879 14.881 76.1329 13.9652C76.5778 13.0493 77.2252 12.2468 78.0261 11.6182C77.0343 10.8385 75.8431 10.3537 74.5887 10.2191C73.3343 10.0844 72.0674 10.3054 70.9327 10.8568C69.798 11.4082 68.8413 12.2677 68.172 13.3371C67.5026 14.4065 67.1477 15.6426 67.1477 16.9042C67.1477 18.1657 67.5026 19.4019 68.172 20.4713C68.8413 21.5406 69.798 22.4002 70.9327 22.9515C72.0674 23.5029 73.3343 23.7239 74.5887 23.5893C75.8431 23.4546 77.0343 22.9698 78.0261 22.1902C77.2252 21.5616 76.5778 20.759 76.1329 19.8432C75.688 18.9274 75.4572 17.9223 75.4582 16.9042Z" fill="#EB001B"/>
<path d="M88.9042 16.9042C88.9043 18.1657 88.5494 19.4018 87.8801 20.4712C87.2108 21.5406 86.2541 22.4001 85.1195 22.9515C83.9848 23.5029 82.7178 23.7239 81.4635 23.5893C80.2091 23.4546 79.018 22.9698 78.0261 22.1902C78.8264 21.5609 79.4733 20.7582 79.9181 19.8425C80.363 18.9269 80.5941 17.9222 80.5941 16.9042C80.5941 15.8862 80.363 14.8814 79.9181 13.9658C79.4733 13.0501 78.8264 12.2474 78.0261 11.6182C79.018 10.8385 80.2091 10.3537 81.4635 10.2191C82.7178 10.0844 83.9848 10.3054 85.1195 10.8568C86.2541 11.4082 87.2108 12.2677 87.8801 13.3371C88.5494 14.4065 88.9043 15.6426 88.9042 16.9042Z" fill="#F79E1B"/>
<path d="M88.2628 21.0704V20.854H88.35V20.8099H88.1278V20.854H88.2151V21.0704H88.2628ZM88.6943 21.0704V20.8095H88.6262L88.5478 20.989L88.4694 20.8095H88.4012V21.0704H88.4494V20.8736L88.5228 21.0433H88.5727L88.6462 20.8732V21.0704H88.6943Z" fill="#F79E1B"/>
</g>
<g filter="url(#filter2_dd_35_1051)">
<rect x="108.362" y="4.03369" width="39.9568" height="25.7414" rx="4.6104" fill="white"/>
<rect x="108.266" y="3.93764" width="40.1489" height="25.9335" rx="4.70645" stroke="#D6DCE5" stroke-width="0.1921"/>
<path fill-rule="evenodd" clip-rule="evenodd" d="M117.103 13.159H114.799C114.641 13.159 114.507 13.2736 114.483 13.4291L113.551 19.3357C113.533 19.4523 113.623 19.5574 113.741 19.5574H114.841C114.999 19.5574 115.133 19.4428 115.157 19.287L115.408 17.6939C115.433 17.5379 115.567 17.4235 115.724 17.4235H116.454C117.971 17.4235 118.847 16.6892 119.076 15.2342C119.179 14.5977 119.08 14.0975 118.782 13.7471C118.455 13.3626 117.874 13.159 117.103 13.159ZM117.369 15.3163C117.243 16.1429 116.611 16.1429 116 16.1429H115.653L115.897 14.5992C115.911 14.506 115.992 14.4373 116.086 14.4373H116.246C116.662 14.4373 117.054 14.4373 117.257 14.6743C117.378 14.8159 117.415 15.026 117.369 15.3163ZM123.989 15.2898H122.886C122.792 15.2898 122.711 15.3586 122.696 15.4519L122.647 15.7604L122.57 15.6486C122.331 15.302 121.799 15.1862 121.267 15.1862C120.048 15.1862 119.007 16.1094 118.804 17.4044C118.699 18.0503 118.849 18.668 119.215 19.0988C119.551 19.4949 120.032 19.6599 120.605 19.6599C121.587 19.6599 122.132 19.0284 122.132 19.0284L122.082 19.335C122.064 19.4522 122.154 19.5572 122.272 19.5572H123.265C123.423 19.5572 123.557 19.4427 123.582 19.2868L124.178 15.5115C124.197 15.3954 124.107 15.2898 123.989 15.2898ZM122.451 17.4367C122.345 18.0669 121.845 18.4899 121.207 18.4899C120.886 18.4899 120.63 18.3872 120.466 18.1925C120.303 17.9992 120.241 17.724 120.293 17.4175C120.392 16.7927 120.901 16.356 121.529 16.356C121.842 16.356 122.097 16.4599 122.265 16.6563C122.433 16.8547 122.499 17.1315 122.451 17.4367ZM128.756 15.2897H129.864C130.02 15.2897 130.11 15.4638 130.022 15.5911L126.335 20.9126C126.275 20.9988 126.177 21.0501 126.072 21.0501H124.965C124.809 21.0501 124.718 20.8746 124.808 20.7469L125.956 19.1266L124.735 15.5436C124.693 15.4191 124.785 15.2897 124.917 15.2897H126.006C126.148 15.2897 126.273 15.3826 126.314 15.518L126.962 17.682L128.491 15.4301C128.551 15.3422 128.65 15.2897 128.756 15.2897Z" fill="#253B80"/>
<path fill-rule="evenodd" clip-rule="evenodd" d="M140.776 19.3352L141.721 13.3206C141.735 13.2272 141.816 13.1585 141.91 13.1582H142.975C143.092 13.1582 143.183 13.2636 143.164 13.3802L142.232 19.2864C142.207 19.4423 142.073 19.5569 141.915 19.5569H140.965C140.847 19.5569 140.757 19.4518 140.776 19.3352ZM133.535 13.1585H131.231C131.074 13.1585 130.94 13.2731 130.915 13.4286L129.983 19.3352C129.965 19.4518 130.055 19.5569 130.173 19.5569H131.355C131.465 19.5569 131.559 19.4767 131.576 19.3676L131.84 17.6934C131.865 17.5373 131.999 17.4229 132.156 17.4229H132.885C134.403 17.4229 135.279 16.6887 135.508 15.2337C135.611 14.5971 135.512 14.097 135.214 13.7466C134.886 13.3621 134.306 13.1585 133.535 13.1585ZM133.801 15.3158C133.675 16.1424 133.044 16.1424 132.432 16.1424H132.085L132.329 14.5987C132.344 14.5055 132.424 14.4367 132.519 14.4367H132.678C133.094 14.4367 133.487 14.4367 133.689 14.6738C133.81 14.8153 133.847 15.0254 133.801 15.3158ZM140.421 15.2893H139.318C139.223 15.2893 139.143 15.3581 139.129 15.4514L139.08 15.7599L139.003 15.6481C138.764 15.3015 138.232 15.1857 137.7 15.1857C136.481 15.1857 135.44 16.1089 135.237 17.4039C135.132 18.0498 135.281 18.6675 135.648 19.0983C135.985 19.4944 136.465 19.6594 137.037 19.6594C138.02 19.6594 138.564 19.0279 138.564 19.0279L138.515 19.3344C138.497 19.4517 138.587 19.5567 138.705 19.5567H139.698C139.856 19.5567 139.99 19.4421 140.014 19.2863L140.611 15.511C140.629 15.3948 140.539 15.2893 140.421 15.2893ZM138.883 17.4362C138.777 18.0663 138.276 18.4894 137.638 18.4894C137.319 18.4894 137.062 18.3866 136.898 18.192C136.734 17.9987 136.673 17.7234 136.725 17.417C136.824 16.7922 137.332 16.3554 137.961 16.3554C138.274 16.3554 138.529 16.4594 138.696 16.6558C138.865 16.8542 138.932 17.131 138.883 17.4362Z" fill="#179BD7"/>
</g>
<g filter="url(#filter3_dd_35_1051)">
<rect x="158.605" y="4.03369" width="39.9568" height="25.7414" rx="4.6104" fill="white"/>
<rect x="158.509" y="3.93764" width="40.1489" height="25.9335" rx="4.70645" stroke="#D6DCE5" stroke-width="0.1921"/>
<path d="M171.529 13.5326C171.795 13.1991 171.976 12.7514 171.928 12.2939C171.538 12.3133 171.062 12.5514 170.786 12.8851C170.539 13.1708 170.32 13.6373 170.377 14.0756C170.815 14.1136 171.252 13.8566 171.529 13.5326Z" fill="#000008"/>
<path d="M171.923 14.1612C171.287 14.1233 170.746 14.5222 170.443 14.5222C170.139 14.5222 169.673 14.1803 169.17 14.1895C168.515 14.1991 167.908 14.5694 167.575 15.1583C166.892 16.3365 167.395 18.0841 168.06 19.0436C168.383 19.5183 168.772 20.041 169.284 20.0223C169.768 20.0033 169.958 19.7087 170.547 19.7087C171.135 19.7087 171.306 20.0223 171.819 20.0128C172.351 20.0033 172.683 19.5378 173.006 19.0626C173.376 18.5215 173.528 17.999 173.537 17.9703C173.528 17.9608 172.512 17.5711 172.503 16.4028C172.493 15.4245 173.3 14.9592 173.338 14.9303C172.882 14.2563 172.17 14.1803 171.923 14.1612Z" fill="#000008"/>
<path d="M177.463 12.8372C178.845 12.8372 179.808 13.7903 179.808 15.178C179.808 16.5705 178.825 17.5286 177.428 17.5286H175.897V19.9631H174.791V12.8372L177.463 12.8372ZM175.897 16.6002H177.166C178.129 16.6002 178.677 16.0817 178.677 15.1829C178.677 14.2842 178.129 13.7706 177.171 13.7706H175.897V16.6002Z" fill="#000008"/>
<path d="M180.097 18.4866C180.097 17.5779 180.793 17.0199 182.028 16.9508L183.45 16.8669V16.4669C183.45 15.8891 183.06 15.5434 182.408 15.5434C181.791 15.5434 181.406 15.8397 181.312 16.3039H180.305C180.364 15.3656 181.164 14.6742 182.448 14.6742C183.707 14.6742 184.512 15.3409 184.512 16.3829V19.9631H183.49V19.1088H183.465C183.164 19.6866 182.507 20.052 181.826 20.052C180.808 20.052 180.097 19.4199 180.097 18.4866ZM183.45 18.0175V17.6076L182.171 17.6866C181.534 17.7311 181.174 18.0126 181.174 18.457C181.174 18.9113 181.549 19.2076 182.122 19.2076C182.867 19.2076 183.45 18.694 183.45 18.0175Z" fill="#000008"/>
<path d="M185.477 21.8743V21.01C185.556 21.0298 185.734 21.0298 185.822 21.0298C186.316 21.0298 186.583 20.8224 186.746 20.2891C186.746 20.2792 186.84 19.973 186.84 19.9681L184.963 14.7681H186.119L187.432 18.9953H187.452L188.766 14.7681H189.892L187.946 20.2347C187.502 21.494 186.988 21.8989 185.911 21.8989C185.822 21.8989 185.556 21.889 185.477 21.8743Z" fill="#000008"/>
</g>
<g filter="url(#filter4_dd_35_1051)">
<rect x="208.848" y="4.03369" width="39.9568" height="25.7414" rx="4.6104" fill="white"/>
<rect x="208.752" y="3.93764" width="40.1489" height="25.9335" rx="4.70645" stroke="#D6DCE5" stroke-width="0.1921"/>
<path d="M227.958 19.9896H227.059V12.9965H229.441C230.045 12.9965 230.56 13.1978 230.981 13.6004C231.412 14.0029 231.627 14.4944 231.627 15.0748C231.627 15.6693 231.412 16.1607 230.981 16.5586C230.565 16.9565 230.05 17.1531 229.441 17.1531H227.958V19.9896ZM227.958 13.8578V16.2965H229.46C229.816 16.2965 230.116 16.1748 230.35 15.9361C230.588 15.6973 230.71 15.4071 230.71 15.0795C230.71 14.7565 230.588 14.471 230.35 14.2323C230.116 13.9842 229.821 13.8625 229.46 13.8625H227.958V13.8578Z" fill="#3C4043"/>
<path d="M233.977 15.0467C234.642 15.0467 235.166 15.2246 235.55 15.5803C235.934 15.9361 236.126 16.4229 236.126 17.0407V19.9896H235.269V19.3249H235.231C234.862 19.8726 234.366 20.1441 233.748 20.1441C233.219 20.1441 232.779 19.9896 232.423 19.676C232.067 19.3624 231.889 18.9739 231.889 18.5058C231.889 18.0096 232.077 17.6165 232.451 17.3263C232.826 17.0314 233.326 16.8863 233.949 16.8863C234.483 16.8863 234.923 16.9846 235.264 17.1811V16.9752C235.264 16.6616 235.143 16.3995 234.894 16.1795C234.646 15.9595 234.356 15.8518 234.024 15.8518C233.523 15.8518 233.125 16.0624 232.835 16.4884L232.044 15.9922C232.479 15.3603 233.125 15.0467 233.977 15.0467ZM232.816 18.5198C232.816 18.7539 232.915 18.9505 233.116 19.1049C233.312 19.2594 233.546 19.339 233.813 19.339C234.192 19.339 234.529 19.1986 234.824 18.9177C235.119 18.6369 235.269 18.3092 235.269 17.9301C234.988 17.7101 234.6 17.5977 234.099 17.5977C233.734 17.5977 233.429 17.6867 233.186 17.8599C232.938 18.0424 232.816 18.2624 232.816 18.5198Z" fill="#3C4043"/>
<path d="M241.012 15.2012L238.017 22.0913H237.09L238.204 19.6807L236.229 15.2012H237.207L238.63 18.6369H238.648L240.034 15.2012H241.012Z" fill="#3C4043"/>
<path d="M224.383 16.5867C224.383 16.2937 224.357 16.0133 224.308 15.7437H220.541V17.2883L222.711 17.2888C222.623 17.8028 222.339 18.2409 221.905 18.533V19.5351H223.197C223.951 18.8372 224.383 17.8056 224.383 16.5867Z" fill="#4285F4"/>
<path d="M221.906 18.533C221.546 18.7755 221.083 18.9173 220.542 18.9173C219.496 18.9173 218.608 18.2124 218.29 17.2622H216.958V18.2957C217.618 19.6054 218.975 20.5041 220.542 20.5041C221.625 20.5041 222.535 20.1479 223.197 19.5347L221.906 18.533Z" fill="#34A853"/>
<path d="M218.165 16.4954C218.165 16.2286 218.209 15.9707 218.29 15.7282V14.6947H216.958C216.685 15.2363 216.532 15.8476 216.532 16.4954C216.532 17.1432 216.686 17.7545 216.958 18.2961L218.29 17.2626C218.209 17.0201 218.165 16.7622 218.165 16.4954Z" fill="#FABB05"/>
<path d="M220.542 14.0731C221.133 14.0731 221.662 14.2767 222.08 14.6746L223.225 13.5311C222.53 12.8837 221.624 12.4863 220.542 12.4863C218.975 12.4863 217.618 13.385 216.958 14.6947L218.29 15.7282C218.608 14.778 219.496 14.0731 220.542 14.0731Z" fill="#E94235"/>
</g>
<defs>
<filter id="filter0_dd_35_1051" x="-4.00543e-05" y="-0.000203133" width="55.7091" height="41.4935" filterUnits="userSpaceOnUse" color-interpolation-filters="sRGB">
<feFlood flood-opacity="0" result="BackgroundImageFix"/>
<feColorMatrix in="SourceAlpha" type="matrix" values="0 0 0 0 0 0 0 0 0 0 0 0 0 0 0 0 0 0 127 0" result="hardAlpha"/>
<feOffset dy="0.3842"/>
<feGaussianBlur stdDeviation="1.921"/>
<feColorMatrix type="matrix" values="0 0 0 0 0.717647 0 0 0 0 0.717647 0 0 0 0 0.717647 0 0 0 0.08 0"/>
<feBlend mode="normal" in2="BackgroundImageFix" result="effect1_dropShadow_35_1051"/>
<feColorMatrix in="SourceAlpha" type="matrix" values="0 0 0 0 0 0 0 0 0 0 0 0 0 0 0 0 0 0 127 0" result="hardAlpha"/>
<feOffset dy="3.842"/>
<feGaussianBlur stdDeviation="3.842"/>
<feColorMatrix type="matrix" values="0 0 0 0 0.717647 0 0 0 0 0.717647 0 0 0 0 0.717647 0 0 0 0.08 0"/>
<feBlend mode="normal" in2="effect1_dropShadow_35_1051" result="effect2_dropShadow_35_1051"/>
<feBlend mode="normal" in="SourceGraphic" in2="effect2_dropShadow_35_1051" result="shape"/>
</filter>
<filter id="filter1_dd_35_1051" x="50.2429" y="-0.000203133" width="55.7091" height="41.4935" filterUnits="userSpaceOnUse" color-interpolation-filters="sRGB">
<feFlood flood-opacity="0" result="BackgroundImageFix"/>
<feColorMatrix in="SourceAlpha" type="matrix" values="0 0 0 0 0 0 0 0 0 0 0 0 0 0 0 0 0 0 127 0" result="hardAlpha"/>
<feOffset dy="0.3842"/>
<feGaussianBlur stdDeviation="1.921"/>
<feColorMatrix type="matrix" values="0 0 0 0 0.717647 0 0 0 0 0.717647 0 0 0 0 0.717647 0 0 0 0.08 0"/>
<feBlend mode="normal" in2="BackgroundImageFix" result="effect1_dropShadow_35_1051"/>
<feColorMatrix in="SourceAlpha" type="matrix" values="0 0 0 0 0 0 0 0 0 0 0 0 0 0 0 0 0 0 127 0" result="hardAlpha"/>
<feOffset dy="3.842"/>
<feGaussianBlur stdDeviation="3.842"/>
<feColorMatrix type="matrix" values="0 0 0 0 0.717647 0 0 0 0 0.717647 0 0 0 0 0.717647 0 0 0 0.08 0"/>
<feBlend mode="normal" in2="effect1_dropShadow_35_1051" result="effect2_dropShadow_35_1051"/>
<feBlend mode="normal" in="SourceGraphic" in2="effect2_dropShadow_35_1051" result="shape"/>
</filter>
<filter id="filter2_dd_35_1051" x="100.486" y="-0.000203133" width="55.7091" height="41.4935" filterUnits="userSpaceOnUse" color-interpolation-filters="sRGB">
<feFlood flood-opacity="0" result="BackgroundImageFix"/>
<feColorMatrix in="SourceAlpha" type="matrix" values="0 0 0 0 0 0 0 0 0 0 0 0 0 0 0 0 0 0 127 0" result="hardAlpha"/>
<feOffset dy="0.3842"/>
<feGaussianBlur stdDeviation="1.921"/>
<feColorMatrix type="matrix" values="0 0 0 0 0.717647 0 0 0 0 0.717647 0 0 0 0 0.717647 0 0 0 0.08 0"/>
<feBlend mode="normal" in2="BackgroundImageFix" result="effect1_dropShadow_35_1051"/>
<feColorMatrix in="SourceAlpha" type="matrix" values="0 0 0 0 0 0 0 0 0 0 0 0 0 0 0 0 0 0 127 0" result="hardAlpha"/>
<feOffset dy="3.842"/>
<feGaussianBlur stdDeviation="3.842"/>
<feColorMatrix type="matrix" values="0 0 0 0 0.717647 0 0 0 0 0.717647 0 0 0 0 0.717647 0 0 0 0.08 0"/>
<feBlend mode="normal" in2="effect1_dropShadow_35_1051" result="effect2_dropShadow_35_1051"/>
<feBlend mode="normal" in="SourceGraphic" in2="effect2_dropShadow_35_1051" result="shape"/>
</filter>
<filter id="filter3_dd_35_1051" x="150.729" y="-0.000203133" width="55.7091" height="41.4935" filterUnits="userSpaceOnUse" color-interpolation-filters="sRGB">
<feFlood flood-opacity="0" result="BackgroundImageFix"/>
<feColorMatrix in="SourceAlpha" type="matrix" values="0 0 0 0 0 0 0 0 0 0 0 0 0 0 0 0 0 0 127 0" result="hardAlpha"/>
<feOffset dy="0.3842"/>
<feGaussianBlur stdDeviation="1.921"/>
<feColorMatrix type="matrix" values="0 0 0 0 0.717647 0 0 0 0 0.717647 0 0 0 0 0.717647 0 0 0 0.08 0"/>
<feBlend mode="normal" in2="BackgroundImageFix" result="effect1_dropShadow_35_1051"/>
<feColorMatrix in="SourceAlpha" type="matrix" values="0 0 0 0 0 0 0 0 0 0 0 0 0 0 0 0 0 0 127 0" result="hardAlpha"/>
<feOffset dy="3.842"/>
<feGaussianBlur stdDeviation="3.842"/>
<feColorMatrix type="matrix" values="0 0 0 0 0.717647 0 0 0 0 0.717647 0 0 0 0 0.717647 0 0 0 0.08 0"/>
<feBlend mode="normal" in2="effect1_dropShadow_35_1051" result="effect2_dropShadow_35_1051"/>
<feBlend mode="normal" in="SourceGraphic" in2="effect2_dropShadow_35_1051" result="shape"/>
</filter>
<filter id="filter4_dd_35_1051" x="200.972" y="-0.000203133" width="55.7091" height="41.4935" filterUnits="userSpaceOnUse" color-interpolation-filters="sRGB">
<feFlood flood-opacity="0" result="BackgroundImageFix"/>
<feColorMatrix in="SourceAlpha" type="matrix" values="0 0 0 0 0 0 0 0 0 0 0 0 0 0 0 0 0 0 127 0" result="hardAlpha"/>
<feOffset dy="0.3842"/>
<feGaussianBlur stdDeviation="1.921"/>
<feColorMatrix type="matrix" values="0 0 0 0 0.717647 0 0 0 0 0.717647 0 0 0 0 0.717647 0 0 0 0.08 0"/>
<feBlend mode="normal" in2="BackgroundImageFix" result="effect1_dropShadow_35_1051"/>
<feColorMatrix in="SourceAlpha" type="matrix" values="0 0 0 0 0 0 0 0 0 0 0 0 0 0 0 0 0 0 127 0" result="hardAlpha"/>
<feOffset dy="3.842"/>
<feGaussianBlur stdDeviation="3.842"/>
<feColorMatrix type="matrix" values="0 0 0 0 0.717647 0 0 0 0 0.717647 0 0 0 0 0.717647 0 0 0 0.08 0"/>
<feBlend mode="normal" in2="effect1_dropShadow_35_1051" result="effect2_dropShadow_35_1051"/>
<feBlend mode="normal" in="SourceGraphic" in2="effect2_dropShadow_35_1051" result="shape"/>
</filter>
</defs>
</svg>
